<svg width="48" height="48" viewBox="0 0 48 48" fill="none" xmlns="http://www.w3.org/2000/svg">
<rect x="0.5" y="0.5" width="47" height="47" rx="23.5" stroke="white" stroke-opacity="0.08"/>
<path d="M25.0276 14.0012C25.7573 13.9984 26.4871 14.0058 27.2166 14.0232L27.4106 14.0302C27.6346 14.0382 27.8556 14.0482 28.1226 14.0602C29.1866 14.1102 29.9126 14.2782 30.5496 14.5252C31.2096 14.7792 31.7656 15.1232 32.3216 15.6792C32.83 16.1788 33.2234 16.7832 33.4746 17.4502C33.7216 18.0872 33.8896 18.8142 33.9396 19.8782C33.9516 20.1442 33.9616 20.3662 33.9696 20.5902L33.9756 20.7842C33.9934 21.5134 34.001 22.2428 33.9986 22.9722L33.9996 23.7182V25.0282C34.0021 25.758 33.9944 26.4877 33.9766 27.2172L33.9706 27.4112C33.9626 27.6352 33.9526 27.8562 33.9406 28.1232C33.8906 29.1872 33.7206 29.9132 33.4746 30.5502C33.2242 31.218 32.8307 31.8228 32.3216 32.3222C31.8216 32.8306 31.2169 33.224 30.5496 33.4752C29.9126 33.7222 29.1866 33.8902 28.1226 33.9402C27.8556 33.9522 27.6346 33.9622 27.4106 33.9702L27.2166 33.9762C26.4871 33.994 25.7573 34.0017 25.0276 33.9992L24.2816 34.0002H22.9726C22.2429 34.0027 21.5131 33.995 20.7836 33.9772L20.5896 33.9712C20.3522 33.9626 20.1149 33.9526 19.8776 33.9412C18.8136 33.8912 18.0876 33.7212 17.4496 33.4752C16.7823 33.2246 16.1778 32.8311 15.6786 32.3222C15.1696 31.8225 14.7758 31.2178 14.5246 30.5502C14.2776 29.9132 14.1096 29.1872 14.0596 28.1232C14.0485 27.8859 14.0385 27.6486 14.0296 27.4112L14.0246 27.2172C14.0062 26.4877 13.9978 25.758 13.9996 25.0282V22.9722C13.9968 22.2428 14.0041 21.5134 14.0216 20.7842L14.0286 20.5902C14.0366 20.3662 14.0466 20.1442 14.0586 19.8782C14.1086 18.8132 14.2766 18.0882 14.5236 17.4502C14.775 16.7829 15.1696 16.1787 15.6796 15.6802C16.1785 15.171 16.7826 14.7768 17.4496 14.5252C18.0876 14.2782 18.8126 14.1102 19.8776 14.0602L20.5896 14.0302L20.7836 14.0252C21.5128 14.0068 22.2422 13.9985 22.9716 14.0002L25.0276 14.0012ZM23.9996 19.0012C23.3371 18.9919 22.6794 19.1143 22.0646 19.3613C21.4498 19.6083 20.8902 19.9751 20.4184 20.4403C19.9466 20.9055 19.572 21.4598 19.3163 22.071C19.0606 22.6822 18.9289 23.3382 18.9289 24.0007C18.9289 24.6633 19.0606 25.3192 19.3163 25.9305C19.572 26.5417 19.9466 27.096 20.4184 27.5612C20.8902 28.0264 21.4498 28.3931 22.0646 28.6402C22.6794 28.8872 23.3371 29.0096 23.9996 29.0002C25.3257 29.0002 26.5975 28.4734 27.5351 27.5358C28.4728 26.5981 28.9996 25.3263 28.9996 24.0002C28.9996 22.6741 28.4728 21.4024 27.5351 20.4647C26.5975 19.527 25.3257 19.0012 23.9996 19.0012ZM23.9996 21.0012C24.3981 20.9939 24.7941 21.066 25.1644 21.2134C25.5347 21.3608 25.8719 21.5806 26.1564 21.8598C26.4408 22.139 26.6668 22.4721 26.821 22.8396C26.9753 23.2071 27.0548 23.6016 27.0549 24.0002C27.0549 24.3988 26.9756 24.7934 26.8214 25.1609C26.6673 25.5285 26.4414 25.8617 26.1571 26.141C25.8727 26.4203 25.5356 26.6401 25.1653 26.7876C24.7951 26.9352 24.3991 27.0074 24.0006 27.0002C23.205 27.0002 22.4419 26.6842 21.8793 26.1216C21.3167 25.5589 21.0006 24.7959 21.0006 24.0002C21.0006 23.2046 21.3167 22.4415 21.8793 21.8789C22.4419 21.3163 23.205 21.0002 24.0006 21.0002L23.9996 21.0012ZM29.2496 17.5012C28.927 17.5141 28.6219 17.6514 28.3982 17.8842C28.1745 18.117 28.0496 18.4274 28.0496 18.7502C28.0496 19.0731 28.1745 19.3834 28.3982 19.6163C28.6219 19.8491 28.927 19.9863 29.2496 19.9992C29.5811 19.9992 29.8991 19.8675 30.1335 19.6331C30.3679 19.3987 30.4996 19.0808 30.4996 18.7492C30.4996 18.4177 30.3679 18.0998 30.1335 17.8653C29.8991 17.6309 29.5811 17.4992 29.2496 17.4992V17.5012Z" fill="white"/>
</svg>
