<svg width="2.5em" height="2.5em" viewBox="0 0 43 45" fill="none" xmlns="http://www.w3.org/2000/svg">
<path d="M38.0911 24.8347C37.5115 24.7661 36.9284 24.9297 36.4691 25.2897C36.0098 25.6497 35.7116 26.1769 35.6398 26.756C35.1665 30.4915 33.346 33.9257 30.5201 36.4141C27.6942 38.9025 24.0572 40.274 20.2919 40.271H7.94731L9.36065 38.8797C9.77195 38.466 10.0028 37.9063 10.0028 37.3229C10.0028 36.7395 9.77195 36.1798 9.36065 35.766C7.42634 33.8394 6.03675 31.435 5.3332 28.7971C4.62965 26.1593 4.63723 23.3822 5.35518 20.7482C6.07312 18.1143 7.47582 15.7174 9.42062 13.8014C11.3654 11.8855 13.7829 10.5187 16.4273 9.84016C16.9954 9.69374 17.4821 9.32763 17.7803 8.82238C18.0785 8.31713 18.1637 7.71411 18.0173 7.146C17.8709 6.57788 17.5048 6.0912 16.9995 5.79302C16.4943 5.49483 15.8913 5.40958 15.3231 5.556C12.1144 6.39262 9.16605 8.01877 6.74656 10.2863C4.32706 12.5539 2.51337 15.3907 1.4707 18.5385C0.428018 21.6863 0.189498 25.045 0.776861 28.3085C1.36423 31.5721 2.7588 34.6368 4.83356 37.2235L1.05731 40.9114C0.750887 41.222 0.543312 41.6163 0.460777 42.0447C0.378243 42.4731 0.424447 42.9163 0.59356 43.3185C0.759229 43.7218 1.04057 44.067 1.40212 44.3107C1.76366 44.5543 2.18925 44.6855 2.62523 44.6877H20.2919C25.1347 44.6876 29.8109 42.9194 33.4421 39.7152C37.0733 36.511 39.4097 32.0912 40.0123 27.286C40.0809 26.7065 39.9174 26.1233 39.5574 25.664C39.1974 25.2047 38.6702 24.9066 38.0911 24.8347ZM37.9586 11.5627C37.0205 11.5657 36.1078 11.8674 35.3527 12.4239L31.4881 10.6572L35.7502 8.71391C36.4169 9.11861 37.1788 9.33957 37.9586 9.35433C38.8321 9.35433 39.686 9.0953 40.4123 8.60999C41.1386 8.12468 41.7047 7.43489 42.039 6.62785C42.3733 5.82081 42.4608 4.93277 42.2904 4.07602C42.1199 3.21927 41.6993 2.43229 41.0816 1.81461C40.4639 1.19693 39.677 0.776281 38.8202 0.605863C37.9635 0.435445 37.0754 0.52291 36.2684 0.857197C35.4613 1.19148 34.7715 1.75758 34.2862 2.4839C33.8009 3.21021 33.5419 4.06413 33.5419 4.93766L29.3461 6.85891C28.6349 6.35244 27.7896 6.06811 26.9169 6.04183C25.7455 6.04183 24.6221 6.50716 23.7938 7.33544C22.9656 8.16373 22.5002 9.28712 22.5002 10.4585C22.5002 11.6299 22.9656 12.7533 23.7938 13.5816C24.6221 14.4098 25.7455 14.8752 26.9169 14.8752C27.6344 14.8679 28.3393 14.686 28.9706 14.3452L33.5861 16.5535C33.6965 17.3956 34.0473 18.188 34.5966 18.8358C35.1459 19.4836 35.8703 19.9592 36.6831 20.2058C37.4958 20.4523 38.3624 20.4593 39.179 20.2259C39.9956 19.9925 40.7276 19.5286 41.2873 18.8898C41.847 18.251 42.2106 17.4643 42.3346 16.6241C42.4586 15.7839 42.3377 14.9258 41.9864 14.1525C41.6351 13.3792 41.0683 12.7237 40.3539 12.2643C39.6395 11.805 38.8079 11.5614 37.9586 11.5627Z" fill="white"/>
</svg>
