<?xml version="1.0" encoding="UTF-8"?>
<svg id="Layer_2" data-name="Layer 2" xmlns="http://www.w3.org/2000/svg" viewBox="0 0 1719.73 282.83">
  <defs>
    <style>
      .cls-1 {
        fill: #5780b5;
      }

      .cls-2 {
        fill: #6d97cb;
      }
    </style>
  </defs>
  <g id="Layer_1-2" data-name="Layer 1">
    <g>
      <path class="cls-1" d="m1232.09,127.3c-4.56-29.19-20.55-48.53-47.7-57.82-17.57-5.99-36.25-3.34-54.34,5.18-.29.14-.59.31-.87.5-26.23,18.19-37.39,43.32-32.26,74.71,9.37,29.94,28.59,47.77,57.78,52.38,13.48,2.11,26.47-.17,38.74-6.15,1-.49,1.99-1,3-1.56v24.92h-.03c-3.03,15.56-16.39,26.8-31.5,27.05-13.55.21-26.09-8.46-31.07-21.64-.42-.78-.8-1.58-1.21-2.36-6.64-9.53-16.44-13.83-24.24-15.71-.64-.16-1.28-.31-1.92-.45-.5-.12-1-.21-1.49-.29-.29-.05-.59-.1-.87-.16-.75-.12-1.44-.21-2.1-.29-1.87-.21-3.74-.33-5.68-.35,0,0-.99,16.01,2.84,29.44.16.52.31,1.06.49,1.56.26.75.5,1.46.76,2.18.14.36.28.75.43,1.11.12.35.28.69.43,1.06v-.03c7.57,18.85,21.81,31.92,42.62,39.02,17.57,6.01,36.25,3.36,54.34-5.16.29-.14.59-.31.87-.5,19.99-13.91,31.24-31.81,33.15-53.47.02-.05.02-.12.02-.17v-.81l.03-9.46h.02l.02-6.41v-38.52c-.02-12.6.16-25.19-.26-37.77Zm-68.02,40.09c-18.02,0-32.76-14.43-32.75-32.07.02-17.66,14.76-32.75,32.04-32.76,17.98,0,32.76,14.45,32.76,32.09.02,18.38-14.05,32.75-32.05,32.75Z"/>
      <path class="cls-1" d="m1369,127.38v30.63h-.02c-2.7,0-5.37-.17-7.97-.5-3.03-.38-5.99-.99-8.85-1.78-1.46-.4-2.88-.85-4.3-1.35-.21-.05-.43-.16-.64-.23-1.87-.69-3.69-1.47-5.48-2.34-.05-.03-.12-.05-.17-.07-14.94-8.04-15.59-21.21-15.59-21.21h.12c-.02-.42-.03-.85-.03-1.26,0-.49-.02-.95-.07-1.46-.71-8.98-8.28-16.04-17.45-16.04h-.07c-8.18.03-15.26,6.03-17.03,13.81-.05,20.08-.02,40.14-.03,60.21v14.78c-2.82,0-5.6-.26-8.28-.76-.66-.14-1.33-.26-1.98-.42-.17-.03-.36-.07-.55-.14-.47-.12-.94-.24-1.42-.38-.62-.17-1.25-.36-1.85-.55-.05-.02-.12-.03-.17-.05-.59-.19-1.16-.4-1.75-.62-.85-.33-1.68-.68-2.49-1.06-.02,0-.03-.02-.05-.02-.17-.07-.35-.14-.5-.23-.19-.07-.38-.17-.57-.26-.59-.28-1.14-.59-1.72-.88-3.41-1.87-6.53-4.14-9.27-6.83-.45-.43-.9-.88-1.33-1.35-.29-.29-.59-.62-.85-.94-.4-.43-.78-.88-1.14-1.35,0,0-.03-.03-.12-.12-.03-.03-.07-.07-.12-.14-.03-.03-.07-.09-.09-.14-2.86-3.57-5.16-7.62-6.79-12.04-.21-.52-.4-1.09-.57-1.66-.14-.43-.26-.87-.4-1.32-.21-.73-.4-1.51-.59-2.3-.38-1.59-.69-3.22-.9-4.9-.03-.29-.05-.61-.07-.9-.21-1.92-.28-3.86-.28-5.8v-29.89c.99-32.69,27.79-58.87,60.71-58.87,33.56-.02,60.75,27.19,60.75,60.75Z"/>
      <path class="cls-1" d="m1719.73,120.05v3.48c-.03,15.09-.03,30.18-.03,45.26,0,8.91,0,17.81-.02,26.7v4.02c-6.72-.03-13.05-1.44-18.7-4.02-7-3.15-12.98-8.06-17.38-14.22-.02-.03-.03-.05-.05-.07-4.11-5.79-6.88-12.67-7.85-20.25v-33.6c0-1.2-.16-2.37-.42-3.5-1.65-6.83-7.9-12.06-15.14-12.06-.36,0-.73.02-1.09.03-3.55-.02-5.84.94-7.38,1.91-4.56,2.93-7.69,9.74-7.69,9.74-.03,15.85-.03,31.71-.03,47.56v28.47c-6.72-.02-13.06-1.44-18.71-4.02-5.77-2.6-10.83-6.38-14.88-11.11h-.02c-5.34-6.15-8.96-13.86-10.24-22.54v-34.51c0-1.33-.17-2.62-.5-3.86-1.75-6.72-7.97-11.7-15.33-11.7-6.97,0-13.22,5.15-15.04,11.7h.05c-.05,24.01-.02,48.01-.03,72.01v4.02c-2.86,0-5.67-.26-8.39-.76-.68-.14-1.35-.26-2.01-.42-.17-.03-.36-.07-.55-.14-.49-.12-.95-.24-1.44-.38-.62-.17-1.26-.36-1.87-.55-.05-.02-.12-.03-.17-.05-.59-.19-1.18-.4-1.78-.62-.87-.33-1.7-.69-2.53-1.07-.19-.07-.38-.16-.57-.24-.19-.07-.38-.17-.57-.26-.59-.29-1.16-.59-1.73-.9-.87-.49-1.7-.97-2.55-1.49-.42-.26-.81-.54-1.23-.8-1.2-.85-2.37-1.72-3.48-2.65-.36-.29-.73-.61-1.09-.95-.36-.33-.71-.68-1.07-1-.45-.43-.92-.9-1.35-1.37-.31-.31-.59-.62-.87-.95-.4-.43-.78-.9-1.16-1.37l-.12-.12s-.07-.07-.12-.14c-.03-.03-.07-.1-.09-.14-2.91-3.6-5.23-7.71-6.88-12.22-.21-.54-.4-1.11-.57-1.68-.14-.43-.26-.88-.4-1.33-.21-.75-.4-1.52-.59-2.34-.38-1.63-.71-3.27-.92-4.97-.03-.31-.05-.61-.07-.92-.29-2.27-.4-4.7-.36-7.29v-30.68c2.86-30.32,28.45-54.09,59.52-54.09,14.99,0,27.95,4.35,38.15,12.73,10.1-8.32,23.08-12.73,37.75-12.73,30.65,0,56,22.94,59.62,52.5Z"/>
      <path class="cls-1" d="m828.35,196.18v50.99c0,2.18-.02,2.24-2.15,2.1-9.43-.61-17.72-3.95-24.72-10.36-7.29-6.69-11.44-15-12.73-24.76-.28-2.06-.36-4.16-.38-6.24-.16-18.82-.28-37.63-.43-56.45-.05-5.32-.17-10.64-.23-15.94-.14-14.78,4.44-27.9,13.57-39.56,12.27-15.65,28.35-24.88,47.72-28.21,18.95-3.26,37.03-.21,53.54,9.95,13.96,8.59,24.36,20.39,29.71,36.07,1.58,4.64,2.58,9.62,2.95,14.5,1.56,20.34-4.3,38.34-18.75,52.93-9.39,9.49-20.58,16.41-33.77,19.7-16.3,4.07-32.42,3.62-48.32-1.91-1.96-.71-3.76-1.77-5.99-2.82Zm32.21-28.69c2.17-.14,3.67-.17,5.18-.35,9.13-1.02,16.37-5.49,22.25-12.37,4.66-5.44,7.4-11.78,7.57-18.94.26-10.6-3.78-19.37-12.28-25.92-7.64-5.89-16.27-8.21-25.82-6.98-7.05.92-12.94,4.09-18.3,8.75-12.23,10.66-15.11,27.1-6.41,40.02,6.88,10.27,16.46,15.02,27.81,15.78Z"/>
      <path class="cls-1" d="m490.33,50.3c-2.37,2.48-4.63,4.96-7,7.28-6.65,6.55-13.38,13.01-20.01,19.56-1.07,1.07-1.72,1-2.77,0-7.94-7.52-17.34-12.11-28.22-13.19-10.12-1-19.73,1.02-28.59,6.1-12.56,7.19-20.58,17.88-23.86,31.98-2.44,10.53-1.35,20.79,3.08,30.68,3.27,7.31,8.04,13.5,14.35,18.44,8.82,6.93,18.85,10.52,30.1,10.57,11.3.03,21.61-3.03,30.51-10.19,1.37-1.11,2.65-2.34,4.07-3.6.42.36.81.66,1.18,1.02,8.56,8.54,17.1,17.12,25.68,25.63.9.88,1,1.4.02,2.34-8.33,7.83-17.67,14.07-28.29,18.37-8.58,3.47-17.46,5.49-26.68,6.19-13.81,1.04-27.13-.99-39.99-6.05-11.66-4.59-21.88-11.38-30.62-20.38-14.28-14.69-22.58-32.19-24.79-52.57-1.98-18.07,1.26-35.22,9.67-51.3,8.23-15.75,20.22-27.96,35.81-36.52,14.85-8.14,30.84-11.85,47.7-10.83,21.9,1.33,41.1,9.29,56.99,24.67.52.5,1.06,1,1.58,1.52.07.12.09.23.1.28Z"/>
      <path class="cls-1" d="m543.97,78.02c2.72-1.98,4.99-3.93,7.52-5.44,7.12-4.24,14.88-6.46,23.18-6.62,8.59-.17,16.93.97,24.79,4.75,8.46,4.07,14.33,10.55,18.28,18.95,3.66,7.78,5.04,16.08,5.7,24.53.29,3.95.33,7.92.33,11.87.03,23.77.02,47.54.02,71.31,0,2.25-.02,2.3-2.25,2.15-9.27-.66-17.38-4.09-24.26-10.33-7.35-6.67-11.76-14.92-13.05-24.76-.24-1.91-.21-3.85-.21-5.77,0-11.83.17-23.67-.03-35.5-.16-8.61-3.55-15.71-11.71-19.51-5.87-2.74-11.92-1.72-17.76.61-6.77,2.7-9.6,8.35-10.72,15.02-.5,2.96-.59,6.01-.59,9.03-.05,22.84-.02,45.67-.02,68.49q0,2.88-2.84,2.69c-19.27-1.33-34.29-15.58-36.63-34.79-.24-2.01-.35-4.05-.35-6.08-.02-44.77-.02-89.56-.02-134.33,0-2.46,0-2.53,2.49-2.43,13.74.52,24.22,6.79,31.76,18.16,4.61,6.97,6.32,14.78,6.38,23.03.03,4.38,0,8.75,0,13.13-.02.54-.02,1.09-.02,1.84Z"/>
      <path class="cls-1" d="m774.31,165.05v35.81c0,2.18-.02,2.27-2.17,2.13-7.74-.45-14.62-3.14-20.57-8.11-1.47-1.23-2.88-2.58-4.18-3.99-.75-.81-1.28-.88-2.24-.31-3.26,1.94-6.5,3.97-9.91,5.61-12.32,5.99-25.37,8.3-38.91,6.17-25.75-4.05-43.77-18.37-54.14-42.17-4.19-9.62-5.63-19.84-4.92-30.29,1.07-15.56,6.84-29.23,17.17-40.91,10.79-12.22,24.36-19.6,40.39-22.28,10.6-1.78,21.16-1.2,31.34,2.29,25.75,8.8,41.5,26.61,47.02,53.24.88,4.24,1,8.7,1.06,13.05.16,9.95.05,19.84.05,29.75Zm-68.56,2.34c18.09,0,32.23-14.43,32.21-32.89-.02-17.71-14.85-32.23-32.9-32.21-17.36.02-32.17,15.16-32.19,32.9-.02,17.69,14.78,32.19,32.89,32.19Z"/>
      <path class="cls-1" d="m1083.98,165.78v35.03c0,2.24-.02,2.32-2.27,2.18-7.66-.5-14.54-3.07-20.43-8.06-1.47-1.25-2.89-2.56-4.19-3.97-.87-.94-1.49-.9-2.49-.24-6.32,4.23-13.05,7.59-20.41,9.63-19.15,5.34-37.37,3.1-54.3-7.26-18.99-11.64-30.1-28.8-32.61-50.92-2.53-22.33,4.68-41.6,20.74-57.26,11.38-11.11,25.31-17.41,41.17-18.76,17.69-1.51,33.82,3.07,47.92,14,15.18,11.75,23.89,27.27,26.37,46.26.4,3.08.45,6.24.45,9.36.09,10,.05,20.01.05,30.01Zm-68.72,1.61c17.81.12,32.73-15.02,32.97-32.4.24-18.04-14.12-32.59-31.9-32.69-18.52-.1-33.11,14.02-33.16,32.09-.03,18.47,14.02,32.92,32.09,33.01Z"/>
      <path class="cls-1" d="m1515.63,164.48v34.17c0,2.18-.02,2.27-2.22,2.13-7.47-.49-14.17-3-19.93-7.87-1.44-1.21-2.82-2.49-4.09-3.86-.85-.92-1.46-.88-2.43-.23-6.17,4.12-12.73,7.4-19.91,9.39-18.66,5.2-36.44,3.03-52.95-7.09-18.52-11.35-29.35-28.09-31.79-49.66-2.46-21.78,4.57-40.56,20.24-55.84,11.11-10.83,24.69-16.98,40.14-18.3,17.24-1.47,32.97,3,46.73,13.65,14.8,11.45,23.29,26.6,25.73,45.12.4,3.01.43,6.08.45,9.13.03,9.72.02,19.49.02,29.25Zm-67.02,1.56c17.36.12,31.92-14.64,32.16-31.6.24-17.59-13.77-31.78-31.1-31.88-18.05-.1-32.28,13.67-32.33,31.29-.05,18.02,13.65,32.12,31.27,32.19Z"/>
      <path class="cls-1" d="m283.4,99.46l-89.69,92.54s-.09.09-.13.13h0c-21.42,21.82-50.05,33.83-80.62,33.83C50.68,225.96,0,175.28,0,112.98S50.68,0,112.98,0c33.08,0,69.03,15.1,91.59,46.98l-55.11,21.93c-10.19-8.44-23.05-13.15-36.49-13.15-31.55,0-57.22,25.67-57.22,57.22s25.67,57.22,57.22,57.22c15.37,0,29.79-6.01,40.6-16.91.03-.03.06-.07.09-.1l89.68-92.54c10.72-11.06,28.37-11.33,39.43-.62,11.05,10.72,11.33,28.37.62,39.43Z"/>
      <path class="cls-2" d="m309.69,49.83c-1.11,8.38-3.39,16.67-5.12,24.98-.32,1.55-.67,3.1-.98,4.64-2.94,13.82-5.85,27.6-8.79,41.39-2.02,9.61-4.04,19.25-6.1,28.87-3.04,14.32-6.11,28.61-9.26,42.88-.32,1.46-.83,2.94-1.52,4.3v.03c-.29.6-.6,1.18-.92,1.71-2.14,3.48-5.78,4.93-9.64,3.54-3-1.11-5.91-2.78-8.54-4.71-10.34-7.65-20.62-15.46-30.92-23.27l-4.64-3.51c-.7-.5-1.43-1.04-2.15-1.51-2.91-1.93-2.75-2.45-4.9-.49-.28.22-21.31,21.96-22.67,23.35-2.34,2.34-4.74,4.59-7.27,6.67l.03-.38.06-1.45s0-.02,0-.03l.54-9.32v-.26l.06-1.14c.13-2.65.26-5.34.38-7.99.21-4.55.44-9.1.69-13.66.23-4.58.51-9.14.79-13.69.07-1.14.16-2.28.22-3.41.13-1.9,1.48-4.11,2.94-5.48,2.21-2.11,4.43-4.2,6.7-6.25,1.36-1.24,2.69-2.47,4.05-3.67,2.53-2.28,5.09-4.55,7.65-6.8,4.17-3.7,8.32-7.37,12.52-10.97.63-.58,1.24-1.11,1.87-1.65.03-.06.09-.09.13-.13.35-.28.63-.56.98-.85l.03-.03c8.41-7.43,16.85-14.77,25.29-22.16.95-.82,1.89-1.65,2.84-2.47,1.9-1.65,3.8-3.32,5.73-4.96,1.92-1.68,3.89-3.36,5.84-5.07,2.98-2.56,6.01-5.19,9.2-7.93.54-.48,1.04-.95,1.58-1.46.73-.7,1.01-1.14.89-1.33-.15-.28-1.11-.09-2.89.58-1.36.56-2.72,1.14-4.08,1.71-2.34,1.14-4.62,2.47-6.83,3.86-.76.44-1.48.92-2.24,1.39-2.62,1.62-5.22,3.26-7.84,4.9-.54.32-1.11.67-1.65,1.01-.78.48-1.55.97-2.33,1.46l-79.1,56.47c-2.94,2.1-6.79,2.46-10.07.93l-39.64-18.41-5.62-2.61c-.32-.26-.6-.5-.82-.82-.63-.76-1.04-1.68-1.17-2.88-.03-.13-.03-.26-.03-.38v-.38c.03-3.48,3-5.84,5.72-7.43,4.9-2.78,10.27-4.74,15.56-7.14l7.36-2.75.03-.03c1.65-.44,3.22-1.01,4.81-1.59,5.31-1.93,10.59-3.95,15.87-6.01.19-.09.41-.15.6-.22.38-.15.79-.32,1.17-.47.13-.03.22-.1.35-.13,1.7-.67,3.41-1.32,5.12-1.99l1.1-.44,1.33-.51c6.04-2.34,12.11-4.68,18.18-7.02l22.83-8.69,2.03-.76.15-.06,1.04-.42,22.22-8.38,28.71-10.88,27.19-10.31c.85-.32,1.7-.6,2.56-.92,8.21-2.88,13.89,3.98,12.76,12.99Z"/>
    </g>
  </g>
</svg>